<?xml version="1.0" encoding="UTF-8" standalone="no"?>
<!DOCTYPE svg PUBLIC "-//W3C//DTD SVG 1.1//EN"
 "http://www.w3.org/Graphics/SVG/1.1/DTD/svg11.dtd">
<!-- Generated by graphviz version 2.43.0 (0)
 -->
<!-- Title: %3 Pages: 1 -->
<svg width="1447pt" height="319pt"
 viewBox="0.00 0.00 1447.00 319.00" xmlns="http://www.w3.org/2000/svg" xmlns:xlink="http://www.w3.org/1999/xlink">
<g id="graph0" class="graph" transform="scale(1 1) rotate(0) translate(4 315)">
<title>%3</title>
<polygon fill="white" stroke="transparent" points="-4,4 -4,-315 1443,-315 1443,4 -4,4"/>
<g id="clust1" class="cluster">
<title>cluster_0</title>
<polygon fill="none" stroke="black" points="8,-35 8,-275 338,-275 338,-35 8,-35"/>
<text text-anchor="middle" x="173" y="-261.4" font-family="Courier,monospace" font-size="12.00">Root Files</text>
</g>
<g id="clust2" class="cluster">
<title>cluster_1</title>
<polygon fill="none" stroke="black" points="358,-8 358,-303 490,-303 490,-8 358,-8"/>
<text text-anchor="middle" x="424" y="-289.4" font-family="Courier,monospace" font-size="12.00">Funcs 0</text>
</g>
<g id="clust3" class="cluster">
<title>cluster_2</title>
<polygon fill="none" stroke="black" points="510,-8 510,-303 864,-303 864,-8 510,-8"/>
<text text-anchor="middle" x="687" y="-289.4" font-family="Courier,monospace" font-size="12.00">Files 1</text>
</g>
<g id="clust4" class="cluster">
<title>cluster_3</title>
<polygon fill="none" stroke="black" points="884,-35 884,-165 1040,-165 1040,-35 884,-35"/>
<text text-anchor="middle" x="962" y="-151.4" font-family="Courier,monospace" font-size="12.00">Funcs 1</text>
</g>
<g id="clust5" class="cluster">
<title>cluster_4</title>
<polygon fill="none" stroke="black" points="1060,-35 1060,-165 1431,-165 1431,-35 1060,-35"/>
<text text-anchor="middle" x="1245.5" y="-151.4" font-family="Courier,monospace" font-size="12.00">Files 2</text>
</g>
<!-- assets/atlases/atari_8bit_font.png -->
<g id="node1" class="node">
<title>assets/atlases/atari_8bit_font.png</title>
<polygon fill="lightblue" stroke="black" points="24.5,-154 24.5,-190 321.5,-190 321.5,-154 24.5,-154"/>
<text text-anchor="middle" x="173" y="-168.3" font-family="Courier,monospace" font-size="14.00">assets/atlases/atari_8bit_font.png</text>
</g>
<!-- AtlasTool_62268269fc834d6b90e1ab1ddafccf8f -->
<g id="node7" class="node">
<title>AtlasTool_62268269fc834d6b90e1ab1ddafccf8f</title>
<polygon fill="lightgrey" stroke="black" points="378.5,-127 378.5,-163 469.5,-163 469.5,-127 378.5,-127"/>
<text text-anchor="middle" x="424" y="-141.3" font-family="Courier,monospace" font-size="14.00">AtlasTool</text>
</g>
<!-- assets/atlases/atari_8bit_font.png&#45;&gt;AtlasTool_62268269fc834d6b90e1ab1ddafccf8f -->
<g id="edge10" class="edge">
<title>assets/atlases/atari_8bit_font.png:e&#45;&gt;AtlasTool_62268269fc834d6b90e1ab1ddafccf8f:w</title>
<path fill="none" stroke="black" stroke-dasharray="5,2" d="M323,-172C346.06,-172 349.55,-152.06 367.1,-146.45"/>
<polygon fill="black" stroke="black" points="377,-145 367.76,-150.9 372.05,-145.73 367.11,-146.45 367.11,-146.45 367.11,-146.45 372.05,-145.73 366.45,-142 377,-145 377,-145"/>
</g>
<!-- LinkingTool_a153951b285248d08c117d41295755e9 -->
<g id="node8" class="node">
<title>LinkingTool_a153951b285248d08c117d41295755e9</title>
<polygon fill="lightgrey" stroke="black" points="370.5,-182 370.5,-218 477.5,-218 477.5,-182 370.5,-182"/>
<text text-anchor="middle" x="424" y="-196.3" font-family="Courier,monospace" font-size="14.00">LinkingTool</text>
</g>
<!-- assets/atlases/atari_8bit_font.png&#45;&gt;LinkingTool_a153951b285248d08c117d41295755e9 -->
<g id="edge2" class="edge">
<title>assets/atlases/atari_8bit_font.png:e&#45;&gt;LinkingTool_a153951b285248d08c117d41295755e9:w</title>
<path fill="none" stroke="black" stroke-dasharray="5,2" d="M323,-172C343.01,-172 344.98,-191.57 359.08,-197.99"/>
<polygon fill="black" stroke="black" points="369,-200 358.3,-202.42 364.1,-199.01 359.2,-198.01 359.2,-198.01 359.2,-198.01 364.1,-199.01 360.09,-193.6 369,-200 369,-200"/>
</g>
<!-- assets/test.txt -->
<g id="node2" class="node">
<title>assets/test.txt</title>
<polygon fill="lightblue" stroke="black" points="103,-209 103,-245 243,-245 243,-209 103,-209"/>
<text text-anchor="middle" x="173" y="-223.3" font-family="Courier,monospace" font-size="14.00">assets/test.txt</text>
</g>
<!-- CopyingTool_44983fb032f148e788681ee56d070dfd -->
<g id="node5" class="node">
<title>CopyingTool_44983fb032f148e788681ee56d070dfd</title>
<polygon fill="lightgrey" stroke="black" points="370.5,-237 370.5,-273 477.5,-273 477.5,-237 370.5,-237"/>
<text text-anchor="middle" x="424" y="-251.3" font-family="Courier,monospace" font-size="14.00">CopyingTool</text>
</g>
<!-- assets/test.txt&#45;&gt;CopyingTool_44983fb032f148e788681ee56d070dfd -->
<g id="edge6" class="edge">
<title>assets/test.txt:e&#45;&gt;CopyingTool_44983fb032f148e788681ee56d070dfd:w</title>
<path fill="none" stroke="black" stroke-dasharray="5,2" d="M244,-227C297.37,-227 310.5,-251.61 358.84,-254.69"/>
<polygon fill="black" stroke="black" points="369,-255 358.87,-259.19 364,-254.85 359,-254.69 359,-254.69 359,-254.69 364,-254.85 359.14,-250.19 369,-255 369,-255"/>
</g>
<!-- assets/output.svg -->
<g id="node3" class="node">
<title>assets/output.svg</title>
<polygon fill="lightblue" stroke="black" points="94.5,-44 94.5,-80 251.5,-80 251.5,-44 94.5,-44"/>
<text text-anchor="middle" x="173" y="-58.3" font-family="Courier,monospace" font-size="14.00">assets/output.svg</text>
</g>
<!-- SVGtoPNGTool_44fffeea71d84d989ccaa050f0837211 -->
<g id="node9" class="node">
<title>SVGtoPNGTool_44fffeea71d84d989ccaa050f0837211</title>
<polygon fill="lightgrey" stroke="black" points="366,-17 366,-53 482,-53 482,-17 366,-17"/>
<text text-anchor="middle" x="424" y="-31.3" font-family="Courier,monospace" font-size="14.00">SVGtoPNGTool</text>
</g>
<!-- assets/output.svg&#45;&gt;SVGtoPNGTool_44fffeea71d84d989ccaa050f0837211 -->
<g id="edge13" class="edge">
<title>assets/output.svg:e&#45;&gt;SVGtoPNGTool_44fffeea71d84d989ccaa050f0837211:w</title>
<path fill="none" stroke="black" stroke-dasharray="5,2" d="M253,-62C300.6,-62 312.24,-38.66 354.79,-35.38"/>
<polygon fill="black" stroke="black" points="365,-35 355.18,-39.87 360,-35.19 355.01,-35.37 355.01,-35.37 355.01,-35.37 360,-35.19 354.84,-30.88 365,-35 365,-35"/>
</g>
<!-- assets/atlases/atari_8bit_font.atlas -->
<g id="node4" class="node">
<title>assets/atlases/atari_8bit_font.atlas</title>
<polygon fill="lightblue" stroke="black" points="16,-99 16,-135 330,-135 330,-99 16,-99"/>
<text text-anchor="middle" x="173" y="-113.3" font-family="Courier,monospace" font-size="14.00">assets/atlases/atari_8bit_font.atlas</text>
</g>
<!-- LinkingTool_144617e0b58e4ab89f8625c4943496f4 -->
<g id="node6" class="node">
<title>LinkingTool_144617e0b58e4ab89f8625c4943496f4</title>
<polygon fill="lightgrey" stroke="black" points="370.5,-72 370.5,-108 477.5,-108 477.5,-72 370.5,-72"/>
<text text-anchor="middle" x="424" y="-86.3" font-family="Courier,monospace" font-size="14.00">LinkingTool</text>
</g>
<!-- assets/atlases/atari_8bit_font.atlas&#45;&gt;LinkingTool_144617e0b58e4ab89f8625c4943496f4 -->
<g id="edge8" class="edge">
<title>assets/atlases/atari_8bit_font.atlas:e&#45;&gt;LinkingTool_144617e0b58e4ab89f8625c4943496f4:w</title>
<path fill="none" stroke="black" stroke-dasharray="5,2" d="M331,-117C347.67,-117 348.7,-99.52 359.26,-92.69"/>
<polygon fill="black" stroke="black" points="369,-90 360.56,-97 364.18,-91.33 359.36,-92.66 359.36,-92.66 359.36,-92.66 364.18,-91.33 358.16,-88.32 369,-90 369,-90"/>
</g>
<!-- assets/atlases/atari_8bit_font.atlas&#45;&gt;AtlasTool_62268269fc834d6b90e1ab1ddafccf8f -->
<g id="edge11" class="edge">
<title>assets/atlases/atari_8bit_font.atlas:e&#45;&gt;AtlasTool_62268269fc834d6b90e1ab1ddafccf8f:w</title>
<path fill="none" stroke="black" stroke-dasharray="5,2" d="M331,-117C351.01,-117 352.98,-136.57 367.08,-142.99"/>
<polygon fill="black" stroke="black" points="377,-145 366.3,-147.42 372.1,-144.01 367.2,-143.01 367.2,-143.01 367.2,-143.01 372.1,-144.01 368.09,-138.6 377,-145 377,-145"/>
</g>
<!-- build/test.txt -->
<g id="node14" class="node">
<title>build/test.txt</title>
<polygon fill="lightblue" stroke="black" points="621,-237 621,-273 753,-273 753,-237 621,-237"/>
<text text-anchor="middle" x="687" y="-251.3" font-family="Courier,monospace" font-size="14.00">build/test.txt</text>
</g>
<!-- CopyingTool_44983fb032f148e788681ee56d070dfd&#45;&gt;build/test.txt -->
<g id="edge7" class="edge">
<title>CopyingTool_44983fb032f148e788681ee56d070dfd:e&#45;&gt;build/test.txt:w</title>
<path fill="none" stroke="black" stroke-dasharray="5,2" d="M479,-255C538.12,-255 555.41,-255 609.79,-255"/>
<polygon fill="black" stroke="black" points="620,-255 610,-259.5 615,-255 610,-255 610,-255 610,-255 615,-255 610,-250.5 620,-255 620,-255"/>
</g>
<!-- build/atlases/atari_8bit_font.atlas -->
<g id="node11" class="node">
<title>build/atlases/atari_8bit_font.atlas</title>
<polygon fill="lightblue" stroke="black" points="534.5,-72 534.5,-108 839.5,-108 839.5,-72 534.5,-72"/>
<text text-anchor="middle" x="687" y="-86.3" font-family="Courier,monospace" font-size="14.00">build/atlases/atari_8bit_font.atlas</text>
</g>
<!-- LinkingTool_144617e0b58e4ab89f8625c4943496f4&#45;&gt;build/atlases/atari_8bit_font.atlas -->
<g id="edge9" class="edge">
<title>LinkingTool_144617e0b58e4ab89f8625c4943496f4:e&#45;&gt;build/atlases/atari_8bit_font.atlas:w</title>
<path fill="none" stroke="black" stroke-dasharray="5,2" d="M479,-90C499.25,-90 506.69,-90 522.93,-90"/>
<polygon fill="black" stroke="black" points="533,-90 523,-94.5 528,-90 523,-90 523,-90 523,-90 528,-90 523,-85.5 533,-90 533,-90"/>
</g>
<!-- build/atlases/atari_8bit_font.atlas.bin -->
<g id="node12" class="node">
<title>build/atlases/atari_8bit_font.atlas.bin</title>
<polygon fill="lightblue" stroke="black" points="518,-127 518,-163 856,-163 856,-127 518,-127"/>
<text text-anchor="middle" x="687" y="-141.3" font-family="Courier,monospace" font-size="14.00">build/atlases/atari_8bit_font.atlas.bin</text>
</g>
<!-- AtlasTool_62268269fc834d6b90e1ab1ddafccf8f&#45;&gt;build/atlases/atari_8bit_font.atlas.bin -->
<g id="edge12" class="edge">
<title>AtlasTool_62268269fc834d6b90e1ab1ddafccf8f:e&#45;&gt;build/atlases/atari_8bit_font.atlas.bin:w</title>
<path fill="none" stroke="black" stroke-dasharray="5,2" d="M471,-145C487.61,-145 494.1,-145 506.92,-145"/>
<polygon fill="black" stroke="black" points="517,-145 507,-149.5 512,-145 507,-145 507,-145 507,-145 512,-145 507,-140.5 517,-145 517,-145"/>
</g>
<!-- build/atlases/atari_8bit_font.png -->
<g id="node10" class="node">
<title>build/atlases/atari_8bit_font.png</title>
<polygon fill="lightblue" stroke="black" points="542.5,-182 542.5,-218 831.5,-218 831.5,-182 542.5,-182"/>
<text text-anchor="middle" x="687" y="-196.3" font-family="Courier,monospace" font-size="14.00">build/atlases/atari_8bit_font.png</text>
</g>
<!-- LinkingTool_a153951b285248d08c117d41295755e9&#45;&gt;build/atlases/atari_8bit_font.png -->
<g id="edge3" class="edge">
<title>LinkingTool_a153951b285248d08c117d41295755e9:e&#45;&gt;build/atlases/atari_8bit_font.png:w</title>
<path fill="none" stroke="black" stroke-dasharray="5,2" d="M479,-200C502.79,-200 511.17,-200 530.75,-200"/>
<polygon fill="black" stroke="black" points="541,-200 531,-204.5 536,-200 531,-200 531,-200 531,-200 536,-200 531,-195.5 541,-200 541,-200"/>
</g>
<!-- assets/output.png -->
<g id="node13" class="node">
<title>assets/output.png</title>
<polygon fill="lightblue" stroke="black" points="608.5,-17 608.5,-53 765.5,-53 765.5,-17 608.5,-17"/>
<text text-anchor="middle" x="687" y="-31.3" font-family="Courier,monospace" font-size="14.00">assets/output.png</text>
</g>
<!-- SVGtoPNGTool_44fffeea71d84d989ccaa050f0837211&#45;&gt;assets/output.png -->
<g id="edge1" class="edge">
<title>SVGtoPNGTool_44fffeea71d84d989ccaa050f0837211:e&#45;&gt;assets/output.png:w</title>
<path fill="none" stroke="black" stroke-dasharray="5,2" d="M483,-35C534.56,-35 549.94,-35 596.84,-35"/>
<polygon fill="black" stroke="black" points="607,-35 597,-39.5 602,-35 597,-35 597,-35 597,-35 602,-35 597,-30.5 607,-35 607,-35"/>
</g>
<!-- CompressionTool_dc80560d24f14b5bae1bd4a891acd7be -->
<g id="node16" class="node">
<title>CompressionTool_dc80560d24f14b5bae1bd4a891acd7be</title>
<polygon fill="lightgrey" stroke="black" points="892,-99 892,-135 1032,-135 1032,-99 892,-99"/>
<text text-anchor="middle" x="962" y="-113.3" font-family="Courier,monospace" font-size="14.00">CompressionTool</text>
</g>
<!-- build/atlases/atari_8bit_font.atlas.bin&#45;&gt;CompressionTool_dc80560d24f14b5bae1bd4a891acd7be -->
<g id="edge14" class="edge">
<title>build/atlases/atari_8bit_font.atlas.bin:e&#45;&gt;CompressionTool_dc80560d24f14b5bae1bd4a891acd7be:w</title>
<path fill="none" stroke="black" stroke-dasharray="5,2" d="M857,-145C872.45,-145 872.5,-127.57 881.45,-120.21"/>
<polygon fill="black" stroke="black" points="891,-117 882.96,-124.45 886.26,-118.59 881.52,-120.19 881.52,-120.19 881.52,-120.19 886.26,-118.59 880.09,-115.92 891,-117 891,-117"/>
</g>
<!-- LinkingTool_169b5951823a45b09cfda2b49f7c4996 -->
<g id="node15" class="node">
<title>LinkingTool_169b5951823a45b09cfda2b49f7c4996</title>
<polygon fill="lightgrey" stroke="black" points="908.5,-44 908.5,-80 1015.5,-80 1015.5,-44 908.5,-44"/>
<text text-anchor="middle" x="962" y="-58.3" font-family="Courier,monospace" font-size="14.00">LinkingTool</text>
</g>
<!-- assets/output.png&#45;&gt;LinkingTool_169b5951823a45b09cfda2b49f7c4996 -->
<g id="edge4" class="edge">
<title>assets/output.png:e&#45;&gt;LinkingTool_169b5951823a45b09cfda2b49f7c4996:w</title>
<path fill="none" stroke="black" stroke-dasharray="5,2" d="M767,-35C826.78,-35 841.97,-59.03 896.7,-61.75"/>
<polygon fill="black" stroke="black" points="907,-62 896.89,-66.26 902,-61.88 897,-61.76 897,-61.76 897,-61.76 902,-61.88 897.11,-57.26 907,-62 907,-62"/>
</g>
<!-- build/output.png -->
<g id="node17" class="node">
<title>build/output.png</title>
<polygon fill="lightblue" stroke="black" points="1171,-44 1171,-80 1320,-80 1320,-44 1171,-44"/>
<text text-anchor="middle" x="1245.5" y="-58.3" font-family="Courier,monospace" font-size="14.00">build/output.png</text>
</g>
<!-- LinkingTool_169b5951823a45b09cfda2b49f7c4996&#45;&gt;build/output.png -->
<g id="edge5" class="edge">
<title>LinkingTool_169b5951823a45b09cfda2b49f7c4996:e&#45;&gt;build/output.png:w</title>
<path fill="none" stroke="black" stroke-dasharray="5,2" d="M1017,-62C1081.2,-62 1099.79,-62 1159.19,-62"/>
<polygon fill="black" stroke="black" points="1169.5,-62 1159.5,-66.5 1164.5,-62 1159.5,-62 1159.5,-62 1159.5,-62 1164.5,-62 1159.5,-57.5 1169.5,-62 1169.5,-62"/>
</g>
<!-- build/atlases/atari_8bit_font.atlas.bin.z -->
<g id="node18" class="node">
<title>build/atlases/atari_8bit_font.atlas.bin.z</title>
<polygon fill="lightblue" stroke="black" points="1068,-99 1068,-135 1423,-135 1423,-99 1068,-99"/>
<text text-anchor="middle" x="1245.5" y="-113.3" font-family="Courier,monospace" font-size="14.00">build/atlases/atari_8bit_font.atlas.bin.z</text>
</g>
<!-- CompressionTool_dc80560d24f14b5bae1bd4a891acd7be&#45;&gt;build/atlases/atari_8bit_font.atlas.bin.z -->
<g id="edge15" class="edge">
<title>CompressionTool_dc80560d24f14b5bae1bd4a891acd7be:e&#45;&gt;build/atlases/atari_8bit_font.atlas.bin.z:w</title>
<path fill="none" stroke="black" stroke-dasharray="5,2" d="M1033,-117C1043.7,-117 1048.63,-117 1056.09,-117"/>
<polygon fill="black" stroke="black" points="1066.5,-117 1056.5,-121.5 1061.5,-117 1056.5,-117 1056.5,-117 1056.5,-117 1061.5,-117 1056.5,-112.5 1066.5,-117 1066.5,-117"/>
</g>
</g>
</svg>
