<?xml version="1.0" encoding="UTF-8" standalone="no"?>
<!DOCTYPE svg PUBLIC "-//W3C//DTD SVG 1.1//EN"
 "http://www.w3.org/Graphics/SVG/1.1/DTD/svg11.dtd">
<!-- Generated by graphviz version 2.43.0 (0)
 -->
<!-- Title: %3 Pages: 1 -->
<svg width="1447pt" height="429pt"
 viewBox="0.00 0.00 1447.00 429.00" xmlns="http://www.w3.org/2000/svg" xmlns:xlink="http://www.w3.org/1999/xlink">
<g id="graph0" class="graph" transform="scale(1 1) rotate(0) translate(4 425)">
<title>%3</title>
<polygon fill="white" stroke="transparent" points="-4,4 -4,-425 1443,-425 1443,4 -4,4"/>
<g id="clust1" class="cluster">
<title>cluster_0</title>
<polygon fill="none" stroke="black" points="8,-63 8,-358 338,-358 338,-63 8,-63"/>
<text text-anchor="middle" x="173" y="-344.4" font-family="Courier,monospace" font-size="12.00">Root Files</text>
</g>
<g id="clust2" class="cluster">
<title>cluster_1</title>
<polygon fill="none" stroke="black" points="358,-8 358,-413 490,-413 490,-8 358,-8"/>
<text text-anchor="middle" x="424" y="-399.4" font-family="Courier,monospace" font-size="12.00">Funcs 0</text>
</g>
<g id="clust3" class="cluster">
<title>cluster_2</title>
<polygon fill="none" stroke="black" points="510,-8 510,-413 864,-413 864,-8 510,-8"/>
<text text-anchor="middle" x="687" y="-399.4" font-family="Courier,monospace" font-size="12.00">Files 1</text>
</g>
<g id="clust4" class="cluster">
<title>cluster_3</title>
<polygon fill="none" stroke="black" points="884,-118 884,-248 1040,-248 1040,-118 884,-118"/>
<text text-anchor="middle" x="962" y="-234.4" font-family="Courier,monospace" font-size="12.00">Funcs 1</text>
</g>
<g id="clust5" class="cluster">
<title>cluster_4</title>
<polygon fill="none" stroke="black" points="1060,-118 1060,-248 1431,-248 1431,-118 1060,-118"/>
<text text-anchor="middle" x="1245.5" y="-234.4" font-family="Courier,monospace" font-size="12.00">Files 2</text>
</g>
<!-- assets/output.log -->
<g id="node1" class="node">
<title>assets/output.log</title>
<polygon fill="lightblue" stroke="black" points="94.5,-292 94.5,-328 251.5,-328 251.5,-292 94.5,-292"/>
<text text-anchor="middle" x="173" y="-306.3" font-family="Courier,monospace" font-size="14.00">assets/output.log</text>
</g>
<!-- LinkingTool_f989755f1f394ba7a390f105ff5b73ef -->
<g id="node10" class="node">
<title>LinkingTool_f989755f1f394ba7a390f105ff5b73ef</title>
<polygon fill="lightgrey" stroke="black" points="370.5,-347 370.5,-383 477.5,-383 477.5,-347 370.5,-347"/>
<text text-anchor="middle" x="424" y="-361.3" font-family="Courier,monospace" font-size="14.00">LinkingTool</text>
</g>
<!-- assets/output.log&#45;&gt;LinkingTool_f989755f1f394ba7a390f105ff5b73ef -->
<g id="edge2" class="edge">
<title>assets/output.log:e&#45;&gt;LinkingTool_f989755f1f394ba7a390f105ff5b73ef:w</title>
<path fill="none" stroke="black" stroke-dasharray="5,2" d="M253,-310C306.49,-310 311.49,-358.34 358.92,-364.38"/>
<polygon fill="black" stroke="black" points="369,-365 358.74,-368.88 364.01,-364.69 359.02,-364.39 359.02,-364.39 359.02,-364.39 364.01,-364.69 359.29,-359.9 369,-365 369,-365"/>
</g>
<!-- assets/atlases/atari_8bit_font.png -->
<g id="node2" class="node">
<title>assets/atlases/atari_8bit_font.png</title>
<polygon fill="lightblue" stroke="black" points="24.5,-237 24.5,-273 321.5,-273 321.5,-237 24.5,-237"/>
<text text-anchor="middle" x="173" y="-251.3" font-family="Courier,monospace" font-size="14.00">assets/atlases/atari_8bit_font.png</text>
</g>
<!-- AtlasTool_8ea1dd9200294c779c2422e0adf0edda -->
<g id="node8" class="node">
<title>AtlasTool_8ea1dd9200294c779c2422e0adf0edda</title>
<polygon fill="lightgrey" stroke="black" points="378.5,-237 378.5,-273 469.5,-273 469.5,-237 378.5,-237"/>
<text text-anchor="middle" x="424" y="-251.3" font-family="Courier,monospace" font-size="14.00">AtlasTool</text>
</g>
<!-- assets/atlases/atari_8bit_font.png&#45;&gt;AtlasTool_8ea1dd9200294c779c2422e0adf0edda -->
<g id="edge6" class="edge">
<title>assets/atlases/atari_8bit_font.png:e&#45;&gt;AtlasTool_8ea1dd9200294c779c2422e0adf0edda:w</title>
<path fill="none" stroke="black" stroke-dasharray="5,2" d="M323,-255C343.25,-255 350.69,-255 366.93,-255"/>
<polygon fill="black" stroke="black" points="377,-255 367,-259.5 372,-255 367,-255 367,-255 367,-255 372,-255 367,-250.5 377,-255 377,-255"/>
</g>
<!-- LinkingTool_d9148b83df314012bad199683103593b -->
<g id="node9" class="node">
<title>LinkingTool_d9148b83df314012bad199683103593b</title>
<polygon fill="lightgrey" stroke="black" points="370.5,-292 370.5,-328 477.5,-328 477.5,-292 370.5,-292"/>
<text text-anchor="middle" x="424" y="-306.3" font-family="Courier,monospace" font-size="14.00">LinkingTool</text>
</g>
<!-- assets/atlases/atari_8bit_font.png&#45;&gt;LinkingTool_d9148b83df314012bad199683103593b -->
<g id="edge16" class="edge">
<title>assets/atlases/atari_8bit_font.png:e&#45;&gt;LinkingTool_d9148b83df314012bad199683103593b:w</title>
<path fill="none" stroke="black" stroke-dasharray="5,2" d="M323,-255C350.88,-255 340.79,-297.11 359.18,-307.64"/>
<polygon fill="black" stroke="black" points="369,-310 358.22,-312.03 364.14,-308.83 359.28,-307.66 359.28,-307.66 359.28,-307.66 364.14,-308.83 360.33,-303.28 369,-310 369,-310"/>
</g>
<!-- assets/test.txt -->
<g id="node3" class="node">
<title>assets/test.txt</title>
<polygon fill="lightblue" stroke="black" points="103,-127 103,-163 243,-163 243,-127 103,-127"/>
<text text-anchor="middle" x="173" y="-141.3" font-family="Courier,monospace" font-size="14.00">assets/test.txt</text>
</g>
<!-- CopyingTool_a7fa77094d43499bb5503cdf7c169f21 -->
<g id="node11" class="node">
<title>CopyingTool_a7fa77094d43499bb5503cdf7c169f21</title>
<polygon fill="lightgrey" stroke="black" points="370.5,-127 370.5,-163 477.5,-163 477.5,-127 370.5,-127"/>
<text text-anchor="middle" x="424" y="-141.3" font-family="Courier,monospace" font-size="14.00">CopyingTool</text>
</g>
<!-- assets/test.txt&#45;&gt;CopyingTool_a7fa77094d43499bb5503cdf7c169f21 -->
<g id="edge14" class="edge">
<title>assets/test.txt:e&#45;&gt;CopyingTool_a7fa77094d43499bb5503cdf7c169f21:w</title>
<path fill="none" stroke="black" stroke-dasharray="5,2" d="M244,-145C295.97,-145 311.48,-145 358.75,-145"/>
<polygon fill="black" stroke="black" points="369,-145 359,-149.5 364,-145 359,-145 359,-145 359,-145 364,-145 359,-140.5 369,-145 369,-145"/>
</g>
<!-- assets/atlases/atari_8bit_font.atlas -->
<g id="node4" class="node">
<title>assets/atlases/atari_8bit_font.atlas</title>
<polygon fill="lightblue" stroke="black" points="16,-182 16,-218 330,-218 330,-182 16,-182"/>
<text text-anchor="middle" x="173" y="-196.3" font-family="Courier,monospace" font-size="14.00">assets/atlases/atari_8bit_font.atlas</text>
</g>
<!-- LinkingTool_49b59cf18e9146ec868f3458fc453301 -->
<g id="node6" class="node">
<title>LinkingTool_49b59cf18e9146ec868f3458fc453301</title>
<polygon fill="lightgrey" stroke="black" points="370.5,-182 370.5,-218 477.5,-218 477.5,-182 370.5,-182"/>
<text text-anchor="middle" x="424" y="-196.3" font-family="Courier,monospace" font-size="14.00">LinkingTool</text>
</g>
<!-- assets/atlases/atari_8bit_font.atlas&#45;&gt;LinkingTool_49b59cf18e9146ec868f3458fc453301 -->
<g id="edge4" class="edge">
<title>assets/atlases/atari_8bit_font.atlas:e&#45;&gt;LinkingTool_49b59cf18e9146ec868f3458fc453301:w</title>
<path fill="none" stroke="black" stroke-dasharray="5,2" d="M331,-200C343.93,-200 349.44,-200 358.89,-200"/>
<polygon fill="black" stroke="black" points="369,-200 359,-204.5 364,-200 359,-200 359,-200 359,-200 364,-200 359,-195.5 369,-200 369,-200"/>
</g>
<!-- assets/atlases/atari_8bit_font.atlas&#45;&gt;AtlasTool_8ea1dd9200294c779c2422e0adf0edda -->
<g id="edge7" class="edge">
<title>assets/atlases/atari_8bit_font.atlas:e&#45;&gt;AtlasTool_8ea1dd9200294c779c2422e0adf0edda:w</title>
<path fill="none" stroke="black" stroke-dasharray="5,2" d="M331,-200C358.88,-200 348.79,-242.11 367.18,-252.64"/>
<polygon fill="black" stroke="black" points="377,-255 366.22,-257.03 372.14,-253.83 367.28,-252.66 367.28,-252.66 367.28,-252.66 372.14,-253.83 368.33,-248.28 377,-255 377,-255"/>
</g>
<!-- assets/output.svg -->
<g id="node5" class="node">
<title>assets/output.svg</title>
<polygon fill="lightblue" stroke="black" points="94.5,-72 94.5,-108 251.5,-108 251.5,-72 94.5,-72"/>
<text text-anchor="middle" x="173" y="-86.3" font-family="Courier,monospace" font-size="14.00">assets/output.svg</text>
</g>
<!-- SVGtoPNGTool_342c9b5483864ea4b2f0cddb35219d6b -->
<g id="node7" class="node">
<title>SVGtoPNGTool_342c9b5483864ea4b2f0cddb35219d6b</title>
<polygon fill="lightgrey" stroke="black" points="366,-72 366,-108 482,-108 482,-72 366,-72"/>
<text text-anchor="middle" x="424" y="-86.3" font-family="Courier,monospace" font-size="14.00">SVGtoPNGTool</text>
</g>
<!-- assets/output.svg&#45;&gt;SVGtoPNGTool_342c9b5483864ea4b2f0cddb35219d6b -->
<g id="edge13" class="edge">
<title>assets/output.svg:e&#45;&gt;SVGtoPNGTool_342c9b5483864ea4b2f0cddb35219d6b:w</title>
<path fill="none" stroke="black" stroke-dasharray="5,2" d="M253,-90C299.18,-90 313.23,-90 354.77,-90"/>
<polygon fill="black" stroke="black" points="365,-90 355,-94.5 360,-90 355,-90 355,-90 355,-90 360,-90 355,-85.5 365,-90 365,-90"/>
</g>
<!-- LinkingTool_93aa25d196aa4fe09ebc1b826b744555 -->
<g id="node12" class="node">
<title>LinkingTool_93aa25d196aa4fe09ebc1b826b744555</title>
<polygon fill="lightgrey" stroke="black" points="370.5,-17 370.5,-53 477.5,-53 477.5,-17 370.5,-17"/>
<text text-anchor="middle" x="424" y="-31.3" font-family="Courier,monospace" font-size="14.00">LinkingTool</text>
</g>
<!-- assets/output.svg&#45;&gt;LinkingTool_93aa25d196aa4fe09ebc1b826b744555 -->
<g id="edge11" class="edge">
<title>assets/output.svg:e&#45;&gt;LinkingTool_93aa25d196aa4fe09ebc1b826b744555:w</title>
<path fill="none" stroke="black" stroke-dasharray="5,2" d="M253,-90C306.49,-90 311.49,-41.66 358.92,-35.62"/>
<polygon fill="black" stroke="black" points="369,-35 359.29,-40.1 364.01,-35.31 359.02,-35.61 359.02,-35.61 359.02,-35.61 364.01,-35.31 358.74,-31.12 369,-35 369,-35"/>
</g>
<!-- build/atlases/atari_8bit_font.atlas -->
<g id="node14" class="node">
<title>build/atlases/atari_8bit_font.atlas</title>
<polygon fill="lightblue" stroke="black" points="534.5,-182 534.5,-218 839.5,-218 839.5,-182 534.5,-182"/>
<text text-anchor="middle" x="687" y="-196.3" font-family="Courier,monospace" font-size="14.00">build/atlases/atari_8bit_font.atlas</text>
</g>
<!-- LinkingTool_49b59cf18e9146ec868f3458fc453301&#45;&gt;build/atlases/atari_8bit_font.atlas -->
<g id="edge5" class="edge">
<title>LinkingTool_49b59cf18e9146ec868f3458fc453301:e&#45;&gt;build/atlases/atari_8bit_font.atlas:w</title>
<path fill="none" stroke="black" stroke-dasharray="5,2" d="M479,-200C499.25,-200 506.69,-200 522.93,-200"/>
<polygon fill="black" stroke="black" points="533,-200 523,-204.5 528,-200 523,-200 523,-200 523,-200 528,-200 523,-195.5 533,-200 533,-200"/>
</g>
<!-- assets/output.png -->
<g id="node13" class="node">
<title>assets/output.png</title>
<polygon fill="lightblue" stroke="black" points="608.5,-72 608.5,-108 765.5,-108 765.5,-72 608.5,-72"/>
<text text-anchor="middle" x="687" y="-86.3" font-family="Courier,monospace" font-size="14.00">assets/output.png</text>
</g>
<!-- SVGtoPNGTool_342c9b5483864ea4b2f0cddb35219d6b&#45;&gt;assets/output.png -->
<g id="edge1" class="edge">
<title>SVGtoPNGTool_342c9b5483864ea4b2f0cddb35219d6b:e&#45;&gt;assets/output.png:w</title>
<path fill="none" stroke="black" stroke-dasharray="5,2" d="M483,-90C534.56,-90 549.94,-90 596.84,-90"/>
<polygon fill="black" stroke="black" points="607,-90 597,-94.5 602,-90 597,-90 597,-90 597,-90 602,-90 597,-85.5 607,-90 607,-90"/>
</g>
<!-- build/atlases/atari_8bit_font.atlas.bin -->
<g id="node15" class="node">
<title>build/atlases/atari_8bit_font.atlas.bin</title>
<polygon fill="lightblue" stroke="black" points="518,-237 518,-273 856,-273 856,-237 518,-237"/>
<text text-anchor="middle" x="687" y="-251.3" font-family="Courier,monospace" font-size="14.00">build/atlases/atari_8bit_font.atlas.bin</text>
</g>
<!-- AtlasTool_8ea1dd9200294c779c2422e0adf0edda&#45;&gt;build/atlases/atari_8bit_font.atlas.bin -->
<g id="edge8" class="edge">
<title>AtlasTool_8ea1dd9200294c779c2422e0adf0edda:e&#45;&gt;build/atlases/atari_8bit_font.atlas.bin:w</title>
<path fill="none" stroke="black" stroke-dasharray="5,2" d="M471,-255C487.61,-255 494.1,-255 506.92,-255"/>
<polygon fill="black" stroke="black" points="517,-255 507,-259.5 512,-255 507,-255 507,-255 507,-255 512,-255 507,-250.5 517,-255 517,-255"/>
</g>
<!-- build/atlases/atari_8bit_font.png -->
<g id="node17" class="node">
<title>build/atlases/atari_8bit_font.png</title>
<polygon fill="lightblue" stroke="black" points="542.5,-292 542.5,-328 831.5,-328 831.5,-292 542.5,-292"/>
<text text-anchor="middle" x="687" y="-306.3" font-family="Courier,monospace" font-size="14.00">build/atlases/atari_8bit_font.png</text>
</g>
<!-- LinkingTool_d9148b83df314012bad199683103593b&#45;&gt;build/atlases/atari_8bit_font.png -->
<g id="edge17" class="edge">
<title>LinkingTool_d9148b83df314012bad199683103593b:e&#45;&gt;build/atlases/atari_8bit_font.png:w</title>
<path fill="none" stroke="black" stroke-dasharray="5,2" d="M479,-310C502.79,-310 511.17,-310 530.75,-310"/>
<polygon fill="black" stroke="black" points="541,-310 531,-314.5 536,-310 531,-310 531,-310 531,-310 536,-310 531,-305.5 541,-310 541,-310"/>
</g>
<!-- build/output.log -->
<g id="node18" class="node">
<title>build/output.log</title>
<polygon fill="lightblue" stroke="black" points="612.5,-347 612.5,-383 761.5,-383 761.5,-347 612.5,-347"/>
<text text-anchor="middle" x="687" y="-361.3" font-family="Courier,monospace" font-size="14.00">build/output.log</text>
</g>
<!-- LinkingTool_f989755f1f394ba7a390f105ff5b73ef&#45;&gt;build/output.log -->
<g id="edge3" class="edge">
<title>LinkingTool_f989755f1f394ba7a390f105ff5b73ef:e&#45;&gt;build/output.log:w</title>
<path fill="none" stroke="black" stroke-dasharray="5,2" d="M479,-365C534.11,-365 550.4,-365 600.81,-365"/>
<polygon fill="black" stroke="black" points="611,-365 601,-369.5 606,-365 601,-365 601,-365 601,-365 606,-365 601,-360.5 611,-365 611,-365"/>
</g>
<!-- build/test.txt -->
<g id="node16" class="node">
<title>build/test.txt</title>
<polygon fill="lightblue" stroke="black" points="621,-127 621,-163 753,-163 753,-127 621,-127"/>
<text text-anchor="middle" x="687" y="-141.3" font-family="Courier,monospace" font-size="14.00">build/test.txt</text>
</g>
<!-- CopyingTool_a7fa77094d43499bb5503cdf7c169f21&#45;&gt;build/test.txt -->
<g id="edge15" class="edge">
<title>CopyingTool_a7fa77094d43499bb5503cdf7c169f21:e&#45;&gt;build/test.txt:w</title>
<path fill="none" stroke="black" stroke-dasharray="5,2" d="M479,-145C538.12,-145 555.41,-145 609.79,-145"/>
<polygon fill="black" stroke="black" points="620,-145 610,-149.5 615,-145 610,-145 610,-145 610,-145 615,-145 610,-140.5 620,-145 620,-145"/>
</g>
<!-- build/output.svg -->
<g id="node19" class="node">
<title>build/output.svg</title>
<polygon fill="lightblue" stroke="black" points="612.5,-17 612.5,-53 761.5,-53 761.5,-17 612.5,-17"/>
<text text-anchor="middle" x="687" y="-31.3" font-family="Courier,monospace" font-size="14.00">build/output.svg</text>
</g>
<!-- LinkingTool_93aa25d196aa4fe09ebc1b826b744555&#45;&gt;build/output.svg -->
<g id="edge12" class="edge">
<title>LinkingTool_93aa25d196aa4fe09ebc1b826b744555:e&#45;&gt;build/output.svg:w</title>
<path fill="none" stroke="black" stroke-dasharray="5,2" d="M479,-35C534.11,-35 550.4,-35 600.81,-35"/>
<polygon fill="black" stroke="black" points="611,-35 601,-39.5 606,-35 601,-35 601,-35 601,-35 606,-35 601,-30.5 611,-35 611,-35"/>
</g>
<!-- LinkingTool_77839d3137c0480580521e24b2319913 -->
<g id="node21" class="node">
<title>LinkingTool_77839d3137c0480580521e24b2319913</title>
<polygon fill="lightgrey" stroke="black" points="908.5,-127 908.5,-163 1015.5,-163 1015.5,-127 908.5,-127"/>
<text text-anchor="middle" x="962" y="-141.3" font-family="Courier,monospace" font-size="14.00">LinkingTool</text>
</g>
<!-- assets/output.png&#45;&gt;LinkingTool_77839d3137c0480580521e24b2319913 -->
<g id="edge9" class="edge">
<title>assets/output.png:e&#45;&gt;LinkingTool_77839d3137c0480580521e24b2319913:w</title>
<path fill="none" stroke="black" stroke-dasharray="5,2" d="M767,-90C811.87,-90 823.04,-99.67 864,-118 880.9,-125.56 883.82,-138.89 896.78,-143.43"/>
<polygon fill="black" stroke="black" points="907,-145 896.43,-147.93 902.06,-144.24 897.12,-143.48 897.12,-143.48 897.12,-143.48 902.06,-144.24 897.8,-139.03 907,-145 907,-145"/>
</g>
<!-- CompressionTool_2ac1f15f58164fafb30986fbe0f8f5da -->
<g id="node20" class="node">
<title>CompressionTool_2ac1f15f58164fafb30986fbe0f8f5da</title>
<polygon fill="lightgrey" stroke="black" points="892,-182 892,-218 1032,-218 1032,-182 892,-182"/>
<text text-anchor="middle" x="962" y="-196.3" font-family="Courier,monospace" font-size="14.00">CompressionTool</text>
</g>
<!-- build/atlases/atari_8bit_font.atlas.bin&#45;&gt;CompressionTool_2ac1f15f58164fafb30986fbe0f8f5da -->
<g id="edge18" class="edge">
<title>build/atlases/atari_8bit_font.atlas.bin:e&#45;&gt;CompressionTool_2ac1f15f58164fafb30986fbe0f8f5da:w</title>
<path fill="none" stroke="black" stroke-dasharray="5,2" d="M857,-255C881.47,-255 868.08,-215.12 881.31,-203.28"/>
<polygon fill="black" stroke="black" points="891,-200 882.97,-207.47 886.26,-201.6 881.53,-203.2 881.53,-203.2 881.53,-203.2 886.26,-201.6 880.09,-198.94 891,-200 891,-200"/>
</g>
<!-- build/atlases/atari_8bit_font.atlas.bin.z -->
<g id="node23" class="node">
<title>build/atlases/atari_8bit_font.atlas.bin.z</title>
<polygon fill="lightblue" stroke="black" points="1068,-182 1068,-218 1423,-218 1423,-182 1068,-182"/>
<text text-anchor="middle" x="1245.5" y="-196.3" font-family="Courier,monospace" font-size="14.00">build/atlases/atari_8bit_font.atlas.bin.z</text>
</g>
<!-- CompressionTool_2ac1f15f58164fafb30986fbe0f8f5da&#45;&gt;build/atlases/atari_8bit_font.atlas.bin.z -->
<g id="edge19" class="edge">
<title>CompressionTool_2ac1f15f58164fafb30986fbe0f8f5da:e&#45;&gt;build/atlases/atari_8bit_font.atlas.bin.z:w</title>
<path fill="none" stroke="black" stroke-dasharray="5,2" d="M1033,-200C1043.7,-200 1048.63,-200 1056.09,-200"/>
<polygon fill="black" stroke="black" points="1066.5,-200 1056.5,-204.5 1061.5,-200 1056.5,-200 1056.5,-200 1056.5,-200 1061.5,-200 1056.5,-195.5 1066.5,-200 1066.5,-200"/>
</g>
<!-- build/output.png -->
<g id="node22" class="node">
<title>build/output.png</title>
<polygon fill="lightblue" stroke="black" points="1171,-127 1171,-163 1320,-163 1320,-127 1171,-127"/>
<text text-anchor="middle" x="1245.5" y="-141.3" font-family="Courier,monospace" font-size="14.00">build/output.png</text>
</g>
<!-- LinkingTool_77839d3137c0480580521e24b2319913&#45;&gt;build/output.png -->
<g id="edge10" class="edge">
<title>LinkingTool_77839d3137c0480580521e24b2319913:e&#45;&gt;build/output.png:w</title>
<path fill="none" stroke="black" stroke-dasharray="5,2" d="M1017,-145C1081.2,-145 1099.79,-145 1159.19,-145"/>
<polygon fill="black" stroke="black" points="1169.5,-145 1159.5,-149.5 1164.5,-145 1159.5,-145 1159.5,-145 1159.5,-145 1164.5,-145 1159.5,-140.5 1169.5,-145 1169.5,-145"/>
</g>
</g>
</svg>
